<?xml version="1.0" encoding="UTF-8" standalone="no"?>
<!DOCTYPE svg PUBLIC "-//W3C//DTD SVG 1.1//EN"
 "http://www.w3.org/Graphics/SVG/1.1/DTD/svg11.dtd">
<!-- Generated by graphviz version 8.0.3 (0)
 -->
<!-- Title: G Pages: 1 -->
<svg width="1258pt" height="1015pt"
 viewBox="0.00 0.00 1257.94 1014.89" xmlns="http://www.w3.org/2000/svg" xmlns:xlink="http://www.w3.org/1999/xlink">
<g id="graph0" class="graph" transform="scale(1 1) rotate(0) translate(4 1010.89)">
<title>G</title>
<polygon fill="white" stroke="none" points="-4,4 -4,-1010.89 1253.94,-1010.89 1253.94,4 -4,4"/>
<g id="clust1" class="cluster">
<title>cluster_0</title>
<polygon fill="none" stroke="red" points="707.41,-56.07 707.41,-270.37 1249.94,-270.37 1249.94,-56.07 707.41,-56.07"/>
<text text-anchor="middle" x="978.68" y="-255.17" font-family="Times,serif" font-size="14.00">Space Agency</text>
</g>
<g id="clust2" class="cluster">
<title>cluster_1</title>
<polygon fill="none" stroke="blue" points="11.18,-286.92 11.18,-695.29 810.96,-695.29 810.96,-286.92 11.18,-286.92"/>
<text text-anchor="middle" x="411.07" y="-680.09" font-family="Times,serif" font-size="14.00">Service queues</text>
</g>
<g id="clust3" class="cluster">
<title>cluster_2</title>
<polygon fill="none" stroke="black" points="128.76,0 128.76,-370.9 539.51,-370.9 539.51,0 128.76,0"/>
<text text-anchor="middle" x="334.14" y="-355.7" font-family="Times,serif" font-size="14.00">Delivery Service</text>
</g>
<g id="clust4" class="cluster">
<title>cluster_3</title>
<polygon fill="none" stroke="black" points="155.51,-629.34 155.51,-1001.62 560.84,-1001.62 560.84,-629.34 155.51,-629.34"/>
<text text-anchor="middle" x="358.17" y="-986.42" font-family="Times,serif" font-size="14.00">Delivery Service</text>
</g>
<g id="clust5" class="cluster">
<title>cluster_4</title>
<polygon fill="none" stroke="black" points="851.91,-595.44 851.91,-1006.89 1199,-1006.89 1199,-595.44 851.91,-595.44"/>
<text text-anchor="middle" x="1025.45" y="-991.69" font-family="Times,serif" font-size="14.00">Admin</text>
</g>
<!-- agency_queue -->
<g id="node1" class="node">
<title>agency_queue</title>
<ellipse fill="lightgrey" stroke="black" cx="864.05" cy="-74.07" rx="156.77" ry="18"/>
<text text-anchor="middle" x="864.05" y="-70.37" font-family="Times,serif" font-size="14.00">queue: {agency name}&#45;sa&#45;main</text>
</g>
<!-- agency_exe -->
<g id="node2" class="node">
<title>agency_exe</title>
<polygon fill="lightgrey" stroke="black" points="1086.06,-270.37 958.53,-252.37 1086.06,-234.37 1213.58,-252.37 1086.06,-270.37"/>
<polyline fill="none" stroke="black" points="970.41,-254.05 970.41,-250.7"/>
<polyline fill="none" stroke="black" points="1074.18,-236.05 1097.94,-236.05"/>
<polyline fill="none" stroke="black" points="1201.7,-250.7 1201.7,-254.05"/>
<polyline fill="none" stroke="black" points="1097.94,-268.7 1074.18,-268.7"/>
<text text-anchor="middle" x="1086.06" y="-248.67" font-family="Times,serif" font-size="14.00">program: Agency</text>
</g>
<!-- agency_queue&#45;&gt;agency_exe -->
<g id="edge3" class="edge">
<title>agency_queue&#45;&gt;agency_exe</title>
<path fill="none" stroke="black" d="M886.56,-92.15C927.48,-125.02 1013.95,-194.46 1058.4,-230.16"/>
<polygon fill="black" stroke="black" points="1055.71,-233.29 1065.7,-236.83 1060.09,-227.84 1055.71,-233.29"/>
<text text-anchor="middle" x="952.48" y="-164.95" font-family="Times,serif" font-size="14.00">reads</text>
</g>
<!-- agency_user -->
<g id="node3" class="node">
<title>agency_user</title>
<polygon fill="lightgrey" stroke="black" points="1249.71,-167.62 1249.71,-182.53 1230.07,-193.07 1202.28,-193.07 1182.64,-182.53 1182.64,-167.62 1202.28,-157.07 1230.07,-157.07 1249.71,-167.62"/>
<text text-anchor="middle" x="1216.17" y="-171.37" font-family="Times,serif" font-size="14.00">user</text>
</g>
<!-- agency_exe&#45;&gt;agency_user -->
<g id="edge2" class="edge">
<title>agency_exe&#45;&gt;agency_user</title>
<path fill="none" stroke="black" d="M1120.22,-238.9C1141.87,-227.45 1169.44,-211.03 1189.48,-197.64"/>
<polygon fill="black" stroke="black" points="1191.12,-200.07 1197.39,-191.53 1187.16,-194.3 1191.12,-200.07"/>
<text text-anchor="middle" x="1088.35" y="-222.07" font-family="Times,serif" font-size="14.00">displays messages</text>
</g>
<!-- exchange -->
<g id="node16" class="node">
<title>exchange</title>
<polygon fill="none" stroke="black" points="749.54,-531.16 665.54,-531.16 665.54,-447.16 749.54,-447.16 749.54,-531.16"/>
<polyline fill="none" stroke="black" points="677.54,-531.16 665.54,-519.16"/>
<polyline fill="none" stroke="black" points="665.54,-459.16 677.54,-447.16"/>
<polyline fill="none" stroke="black" points="737.54,-447.16 749.54,-459.16"/>
<polyline fill="none" stroke="black" points="749.54,-519.16 737.54,-531.16"/>
<text text-anchor="middle" x="707.54" y="-485.46" font-family="Times,serif" font-size="14.00">exchange</text>
</g>
<!-- agency_exe&#45;&gt;exchange -->
<g id="edge16" class="edge">
<title>agency_exe&#45;&gt;exchange</title>
<path fill="none" stroke="black" d="M1062.09,-267.37C1001.69,-305.15 842.14,-404.96 759.22,-456.83"/>
<polygon fill="black" stroke="black" points="757.61,-454.33 750.99,-462.6 761.32,-460.27 757.61,-454.33"/>
<text text-anchor="middle" x="754.16" y="-350.9" font-family="Times,serif" font-size="14.00">writes to: </text>
<text text-anchor="middle" x="754.16" y="-335.9" font-family="Times,serif" font-size="14.00">service.{service type}.{agency name}.{id}</text>
</g>
<!-- agency_user&#45;&gt;agency_exe -->
<g id="edge1" class="edge">
<title>agency_user&#45;&gt;agency_exe</title>
<path fill="none" stroke="black" d="M1187.66,-185.61C1165.17,-197.13 1134.12,-215.49 1112.26,-230.14"/>
<polygon fill="black" stroke="black" points="1110.46,-227.81 1104.21,-236.36 1114.43,-233.58 1110.46,-227.81"/>
<text text-anchor="middle" x="1086.96" y="-196.67" font-family="Times,serif" font-size="14.00">issues commands</text>
</g>
<!-- people_service -->
<g id="node4" class="node">
<title>people_service</title>
<ellipse fill="lightgrey" stroke="black" cx="122.97" cy="-512.11" rx="111.58" ry="18"/>
<text text-anchor="middle" x="122.97" y="-508.41" font-family="Times,serif" font-size="14.00">queue: people service</text>
</g>
<!-- delivery_1_exe -->
<g id="node8" class="node">
<title>delivery_1_exe</title>
<polygon fill="lightgrey" stroke="black" points="404.4,-165.2 269.17,-147.2 404.4,-129.2 539.63,-147.2 404.4,-165.2"/>
<polyline fill="none" stroke="black" points="281.06,-148.79 281.06,-145.62"/>
<polyline fill="none" stroke="black" points="392.5,-130.79 416.29,-130.79"/>
<polyline fill="none" stroke="black" points="527.74,-145.62 527.74,-148.79"/>
<polyline fill="none" stroke="black" points="416.29,-163.62 392.5,-163.62"/>
<text text-anchor="middle" x="404.4" y="-143.5" font-family="Times,serif" font-size="14.00">program: Delivery</text>
</g>
<!-- people_service&#45;&gt;delivery_1_exe -->
<g id="edge24" class="edge">
<title>people_service&#45;&gt;delivery_1_exe</title>
<path fill="none" stroke="black" d="M137.12,-493.76C183.63,-433.46 331.85,-241.27 385.11,-172.21"/>
<polygon fill="black" stroke="black" points="388.36,-174.74 391.69,-164.68 382.81,-170.46 388.36,-174.74"/>
<text text-anchor="middle" x="241.12" y="-321.79" font-family="Times,serif" font-size="14.00">reads</text>
</g>
<!-- delivery_2_exe -->
<g id="node11" class="node">
<title>delivery_2_exe</title>
<polygon fill="lightgrey" stroke="black" points="425.72,-869.5 290.49,-851.5 425.72,-833.5 560.95,-851.5 425.72,-869.5"/>
<polyline fill="none" stroke="black" points="302.39,-853.08 302.39,-849.92"/>
<polyline fill="none" stroke="black" points="413.83,-835.08 437.62,-835.08"/>
<polyline fill="none" stroke="black" points="549.06,-849.92 549.06,-853.08"/>
<polyline fill="none" stroke="black" points="437.62,-867.92 413.83,-867.92"/>
<text text-anchor="middle" x="425.72" y="-847.8" font-family="Times,serif" font-size="14.00">program: Delivery</text>
</g>
<!-- people_service&#45;&gt;delivery_2_exe -->
<g id="edge27" class="edge">
<title>people_service&#45;&gt;delivery_2_exe</title>
<path fill="none" stroke="black" d="M139.25,-530.35C190.14,-587.41 346.31,-762.48 404.01,-827.16"/>
<polygon fill="black" stroke="black" points="400.9,-829.05 410.16,-834.18 406.12,-824.39 400.9,-829.05"/>
<text text-anchor="middle" x="251.63" y="-682.55" font-family="Times,serif" font-size="14.00">reads</text>
</g>
<!-- cargo_service -->
<g id="node5" class="node">
<title>cargo_service</title>
<ellipse fill="lightgrey" stroke="black" cx="680.76" cy="-304.92" rx="106.68" ry="18"/>
<text text-anchor="middle" x="680.76" y="-301.22" font-family="Times,serif" font-size="14.00">queue: cargo service</text>
</g>
<!-- cargo_service&#45;&gt;delivery_1_exe -->
<g id="edge25" class="edge">
<title>cargo_service&#45;&gt;delivery_1_exe</title>
<path fill="none" stroke="black" d="M649.86,-287.28C598.17,-257.79 494.48,-198.61 439.89,-167.46"/>
<polygon fill="black" stroke="black" points="442.02,-164.08 431.6,-162.16 438.55,-170.16 442.02,-164.08"/>
<text text-anchor="middle" x="524.87" y="-231.17" font-family="Times,serif" font-size="14.00">reads</text>
</g>
<!-- satelite_service -->
<g id="node6" class="node">
<title>satelite_service</title>
<ellipse fill="lightgrey" stroke="black" cx="695.27" cy="-677.29" rx="115.88" ry="18"/>
<text text-anchor="middle" x="695.27" y="-673.59" font-family="Times,serif" font-size="14.00">queue: satelite service</text>
</g>
<!-- satelite_service&#45;&gt;delivery_2_exe -->
<g id="edge28" class="edge">
<title>satelite_service&#45;&gt;delivery_2_exe</title>
<path fill="none" stroke="black" d="M667.69,-695.12C617.56,-727.51 511.77,-795.89 458.23,-830.49"/>
<polygon fill="black" stroke="black" points="456.67,-827.97 450.17,-836.34 460.47,-833.85 456.67,-827.97"/>
<text text-anchor="middle" x="542.96" y="-766.6" font-family="Times,serif" font-size="14.00">reads</text>
</g>
<!-- delivery_1_queue -->
<g id="node7" class="node">
<title>delivery_1_queue</title>
<ellipse fill="lightgrey" stroke="black" cx="326.99" cy="-352.9" rx="198.47" ry="18"/>
<text text-anchor="middle" x="326.99" y="-349.2" font-family="Times,serif" font-size="14.00">queue: {delivery service name}&#45;ds&#45;main</text>
</g>
<!-- delivery_1_queue&#45;&gt;delivery_1_exe -->
<g id="edge6" class="edge">
<title>delivery_1_queue&#45;&gt;delivery_1_exe</title>
<path fill="none" stroke="black" d="M333.86,-334.65C347.47,-298.47 377.95,-217.47 394.02,-174.77"/>
<polygon fill="black" stroke="black" points="397.63,-176.13 397.87,-165.54 391.08,-173.67 397.63,-176.13"/>
<text text-anchor="middle" x="343.94" y="-258.51" font-family="Times,serif" font-size="14.00">reads</text>
</g>
<!-- delivery_1_launchpad -->
<g id="node9" class="node">
<title>delivery_1_launchpad</title>
<polygon fill="lightgrey" stroke="black" points="418.39,-10.54 418.39,-25.46 364.31,-36 287.84,-36 233.76,-25.46 233.76,-10.54 287.84,0 364.31,0 418.39,-10.54"/>
<text text-anchor="middle" x="326.07" y="-14.3" font-family="Times,serif" font-size="14.00">user/launch pad</text>
</g>
<!-- delivery_1_exe&#45;&gt;delivery_1_launchpad -->
<g id="edge5" class="edge">
<title>delivery_1_exe&#45;&gt;delivery_1_launchpad</title>
<path fill="none" stroke="black" d="M399,-129.51C388.59,-107.66 366.48,-70.39 349.21,-44.98"/>
<polygon fill="black" stroke="black" points="351.69,-43.4 343.1,-37.2 345.94,-47.41 351.69,-43.4"/>
<text text-anchor="middle" x="278.11" y="-91.04" font-family="Times,serif" font-size="14.00">sends delivery information</text>
</g>
<!-- delivery_1_exe&#45;&gt;exchange -->
<g id="edge26" class="edge">
<title>delivery_1_exe&#45;&gt;exchange</title>
<path fill="none" stroke="black" d="M419.02,-163.7C462.7,-212.97 593.48,-360.5 662.98,-438.9"/>
<polygon fill="black" stroke="black" points="659.67,-440.56 668.92,-445.72 664.9,-435.92 659.67,-440.56"/>
<text text-anchor="middle" x="270.5" y="-290.1" font-family="Times,serif" font-size="14.00">writes to: </text>
<text text-anchor="middle" x="270.5" y="-275.1" font-family="Times,serif" font-size="14.00">agency.{destination agency name}.{delivery services name}.{response id}</text>
</g>
<!-- delivery_1_launchpad&#45;&gt;delivery_1_exe -->
<g id="edge4" class="edge">
<title>delivery_1_launchpad&#45;&gt;delivery_1_exe</title>
<path fill="none" stroke="black" d="M331.73,-36.23C342.48,-58.64 365.1,-96.66 382.39,-121.88"/>
<polygon fill="black" stroke="black" points="380.09,-123.7 388.71,-129.86 385.81,-119.67 380.09,-123.7"/>
<text text-anchor="middle" x="277.06" y="-67.86" font-family="Times,serif" font-size="14.00">triggers confirmations</text>
</g>
<!-- delivery_2_queue -->
<g id="node10" class="node">
<title>delivery_2_queue</title>
<ellipse fill="lightgrey" stroke="black" cx="353.74" cy="-647.34" rx="198.47" ry="18"/>
<text text-anchor="middle" x="353.74" y="-643.64" font-family="Times,serif" font-size="14.00">queue: {delivery service name}&#45;ds&#45;main</text>
</g>
<!-- delivery_2_queue&#45;&gt;delivery_2_exe -->
<g id="edge9" class="edge">
<title>delivery_2_queue&#45;&gt;delivery_2_exe</title>
<path fill="none" stroke="black" d="M360.26,-665.82C372.96,-701.85 401.09,-781.65 416.01,-823.94"/>
<polygon fill="black" stroke="black" points="412.96,-824.81 419.58,-833.08 419.56,-822.49 412.96,-824.81"/>
<text text-anchor="middle" x="368.13" y="-748.68" font-family="Times,serif" font-size="14.00">reads</text>
</g>
<!-- delivery_2_launchpad -->
<g id="node12" class="node">
<title>delivery_2_launchpad</title>
<ellipse fill="lightgrey" stroke="black" cx="353.55" cy="-983.62" rx="85.29" ry="18"/>
<text text-anchor="middle" x="353.55" y="-979.92" font-family="Times,serif" font-size="14.00">user/launch pad</text>
</g>
<!-- delivery_2_exe&#45;&gt;delivery_2_launchpad -->
<g id="edge8" class="edge">
<title>delivery_2_exe&#45;&gt;delivery_2_launchpad</title>
<path fill="none" stroke="black" d="M411.26,-867.81C396.7,-889.7 375.13,-928.77 362.72,-955.45"/>
<polygon fill="black" stroke="black" points="359.18,-953.79 358.29,-964.35 365.57,-956.65 359.18,-953.79"/>
<text text-anchor="middle" x="290.99" y="-915.43" font-family="Times,serif" font-size="14.00">sends delivery information</text>
</g>
<!-- delivery_2_exe&#45;&gt;exchange -->
<g id="edge29" class="edge">
<title>delivery_2_exe&#45;&gt;exchange</title>
<path fill="none" stroke="black" d="M438.56,-834.99C478.81,-783.24 603.64,-622.74 668.11,-539.85"/>
<polygon fill="black" stroke="black" points="671.34,-542.39 674.72,-532.35 665.82,-538.1 671.34,-542.39"/>
<text text-anchor="middle" x="282.84" y="-706.22" font-family="Times,serif" font-size="14.00">writes to: </text>
<text text-anchor="middle" x="282.84" y="-691.22" font-family="Times,serif" font-size="14.00">agency.{destination agency name}.{delivery services name}.{response id}</text>
</g>
<!-- delivery_2_launchpad&#45;&gt;delivery_2_exe -->
<g id="edge7" class="edge">
<title>delivery_2_launchpad&#45;&gt;delivery_2_exe</title>
<path fill="none" stroke="black" d="M369.09,-965.68C383.69,-943.42 404.64,-905.34 416.73,-879.3"/>
<polygon fill="black" stroke="black" points="420.31,-880.86 421.18,-870.3 413.92,-878.01 420.31,-880.86"/>
<text text-anchor="middle" x="472.91" y="-926.29" font-family="Times,serif" font-size="14.00">triggers confirmations</text>
</g>
<!-- admin_queue -->
<g id="node13" class="node">
<title>admin_queue</title>
<ellipse fill="lightgrey" stroke="black" cx="1096.31" cy="-613.44" rx="102.88" ry="18"/>
<text text-anchor="middle" x="1096.31" y="-609.74" font-family="Times,serif" font-size="14.00">{ephemeral queue}</text>
</g>
<!-- admin_exe -->
<g id="node14" class="node">
<title>admin_exe</title>
<polygon fill="lightgrey" stroke="black" points="974.16,-880.78 851.66,-862.78 974.16,-844.78 1096.65,-862.78 974.16,-880.78"/>
<polyline fill="none" stroke="black" points="863.53,-864.52 863.53,-861.03"/>
<polyline fill="none" stroke="black" points="962.28,-846.52 986.03,-846.52"/>
<polyline fill="none" stroke="black" points="1084.78,-861.03 1084.78,-864.52"/>
<polyline fill="none" stroke="black" points="986.03,-879.03 962.28,-879.03"/>
<text text-anchor="middle" x="974.16" y="-859.08" font-family="Times,serif" font-size="14.00">program: Admin</text>
</g>
<!-- admin_queue&#45;&gt;admin_exe -->
<g id="edge12" class="edge">
<title>admin_queue&#45;&gt;admin_exe</title>
<path fill="none" stroke="black" d="M1087.33,-631.77C1065.99,-675.33 1012.17,-785.18 987.23,-836.1"/>
<polygon fill="black" stroke="black" points="983.76,-834.23 982.5,-844.75 990.04,-837.31 983.76,-834.23"/>
<text text-anchor="middle" x="1017.28" y="-737.74" font-family="Times,serif" font-size="14.00">reads</text>
</g>
<!-- admin_user -->
<g id="node15" class="node">
<title>admin_user</title>
<polygon fill="lightgrey" stroke="black" points="1089.79,-981.43 1089.79,-996.34 1070.14,-1006.89 1042.36,-1006.89 1022.71,-996.34 1022.71,-981.43 1042.36,-970.89 1070.14,-970.89 1089.79,-981.43"/>
<text text-anchor="middle" x="1056.25" y="-985.19" font-family="Times,serif" font-size="14.00">user</text>
</g>
<!-- admin_exe&#45;&gt;admin_user -->
<g id="edge11" class="edge">
<title>admin_exe&#45;&gt;admin_user</title>
<path fill="none" stroke="black" d="M980.08,-880.22C991.26,-901.9 1014.87,-938.89 1032.96,-963.64"/>
<polygon fill="black" stroke="black" points="1030.54,-965.26 1039.34,-971.16 1036.14,-961.06 1030.54,-965.26"/>
<text text-anchor="middle" x="927.02" y="-925.73" font-family="Times,serif" font-size="14.00">dosplays all messages</text>
</g>
<!-- admin_exe&#45;&gt;exchange -->
<g id="edge31" class="edge">
<title>admin_exe&#45;&gt;exchange</title>
<path fill="none" stroke="black" d="M962.36,-846.24C924.49,-793.18 804.99,-625.72 744.05,-540.32"/>
<polygon fill="black" stroke="black" points="746.46,-538.68 737.8,-532.57 740.76,-542.74 746.46,-538.68"/>
<text text-anchor="middle" x="1034.7" y="-712.08" font-family="Times,serif" font-size="14.00">writes to: </text>
<text text-anchor="middle" x="1034.7" y="-697.08" font-family="Times,serif" font-size="14.00">{delivery_services|everyone|agencies}.admin.{id}</text>
</g>
<!-- admin_user&#45;&gt;admin_exe -->
<g id="edge10" class="edge">
<title>admin_user&#45;&gt;admin_exe</title>
<path fill="none" stroke="black" d="M1049.91,-970.64C1038.5,-948.73 1015.03,-912.02 997.12,-887.57"/>
<polygon fill="black" stroke="black" points="999.37,-885.75 990.56,-879.86 993.78,-889.95 999.37,-885.75"/>
<text text-anchor="middle" x="1128.01" y="-932.91" font-family="Times,serif" font-size="14.00">issues messages to multicast</text>
</g>
<!-- exchange&#45;&gt;agency_queue -->
<g id="edge13" class="edge">
<title>exchange&#45;&gt;agency_queue</title>
<path fill="none" stroke="black" d="M733,-446.67C772.13,-362.1 842.07,-174.88 860.67,-102.94"/>
<polygon fill="black" stroke="black" points="864.26,-103.96 863.2,-93.42 857.46,-102.32 864.26,-103.96"/>
<text text-anchor="middle" x="891.33" y="-278.6" font-family="Times,serif" font-size="14.00">agency.{Agency name}.*.*</text>
</g>
<!-- exchange&#45;&gt;agency_queue -->
<g id="edge14" class="edge">
<title>exchange&#45;&gt;agency_queue</title>
<path fill="none" stroke="black" d="M714.61,-446.8C738.96,-361.91 810.4,-173.22 845.54,-101.97"/>
<polygon fill="black" stroke="black" points="849.03,-103.83 850.45,-93.34 842.79,-100.66 849.03,-103.83"/>
<text text-anchor="middle" x="737.58" y="-263.18" font-family="Times,serif" font-size="14.00">agencies.*.*</text>
</g>
<!-- exchange&#45;&gt;agency_queue -->
<g id="edge15" class="edge">
<title>exchange&#45;&gt;agency_queue</title>
<path fill="none" stroke="black" d="M723.55,-446.69C755.49,-361.98 826.36,-174.04 853.34,-102.48"/>
<polygon fill="black" stroke="black" points="856.88,-104.01 857.13,-93.41 850.33,-101.54 856.88,-104.01"/>
<text text-anchor="middle" x="832.44" y="-263.39" font-family="Times,serif" font-size="14.00">everyone.*.*</text>
</g>
<!-- exchange&#45;&gt;people_service -->
<g id="edge17" class="edge">
<title>exchange&#45;&gt;people_service</title>
<path fill="none" stroke="black" d="M665.5,-490.81C578.16,-494.24 374.29,-502.24 242.84,-507.4"/>
<polygon fill="black" stroke="black" points="242.78,-503.94 232.93,-507.83 243.06,-510.93 242.78,-503.94"/>
<text text-anchor="middle" x="391.17" y="-502.91" font-family="Times,serif" font-size="14.00">service.people.*.*</text>
</g>
<!-- exchange&#45;&gt;cargo_service -->
<g id="edge18" class="edge">
<title>exchange&#45;&gt;cargo_service</title>
<path fill="none" stroke="black" d="M701.39,-446.89C696.35,-412.22 689.36,-364.08 684.94,-333.71"/>
<polygon fill="black" stroke="black" points="688.29,-333.4 683.39,-324.01 681.36,-334.41 688.29,-333.4"/>
<text text-anchor="middle" x="634.17" y="-394.1" font-family="Times,serif" font-size="14.00">service.cargo.*.*</text>
</g>
<!-- exchange&#45;&gt;satelite_service -->
<g id="edge19" class="edge">
<title>exchange&#45;&gt;satelite_service</title>
<path fill="none" stroke="black" d="M704.78,-531.38C702.45,-567.08 699.18,-617.27 697.14,-648.51"/>
<polygon fill="black" stroke="black" points="693.61,-647.89 696.45,-658.1 700.6,-648.35 693.61,-647.89"/>
<text text-anchor="middle" x="634.96" y="-593.74" font-family="Times,serif" font-size="14.00">service.satelite.*.*</text>
</g>
<!-- exchange&#45;&gt;delivery_1_queue -->
<g id="edge20" class="edge">
<title>exchange&#45;&gt;delivery_1_queue</title>
<path fill="none" stroke="black" d="M665.4,-469.3C601.74,-443.69 480.16,-399.82 401.38,-373.76"/>
<polygon fill="black" stroke="black" points="402.63,-370.16 392.04,-370.36 400.44,-376.81 402.63,-370.16"/>
<text text-anchor="middle" x="489.39" y="-410.33" font-family="Times,serif" font-size="14.00">everyone.*.*</text>
</g>
<!-- exchange&#45;&gt;delivery_1_queue -->
<g id="edge21" class="edge">
<title>exchange&#45;&gt;delivery_1_queue</title>
<path fill="none" stroke="black" d="M665.34,-478.69C593.99,-456.38 450.01,-404.96 374.95,-375.09"/>
<polygon fill="black" stroke="black" points="376.41,-371.5 365.83,-371.02 373.8,-378 376.41,-371.5"/>
<text text-anchor="middle" x="447.14" y="-430.69" font-family="Times,serif" font-size="14.00">delivery_services.*.*</text>
</g>
<!-- exchange&#45;&gt;delivery_2_queue -->
<g id="edge22" class="edge">
<title>exchange&#45;&gt;delivery_2_queue</title>
<path fill="none" stroke="black" d="M665.12,-503.2C596.26,-530.72 461.14,-591.11 393.82,-624.44"/>
<polygon fill="black" stroke="black" points="392.77,-621.55 385.39,-629.15 395.9,-627.81 392.77,-621.55"/>
<text text-anchor="middle" x="485.47" y="-567.62" font-family="Times,serif" font-size="14.00">everyone.*.*</text>
</g>
<!-- exchange&#45;&gt;delivery_2_queue -->
<g id="edge23" class="edge">
<title>exchange&#45;&gt;delivery_2_queue</title>
<path fill="none" stroke="black" d="M665.34,-513.11C603.25,-543.73 486.94,-595.94 415.31,-625.51"/>
<polygon fill="black" stroke="black" points="414.44,-622.49 406.51,-629.53 417.09,-628.97 414.44,-622.49"/>
<text text-anchor="middle" x="613.33" y="-573.11" font-family="Times,serif" font-size="14.00">delivery_services.*.*</text>
</g>
<!-- exchange&#45;&gt;admin_queue -->
<g id="edge30" class="edge">
<title>exchange&#45;&gt;admin_queue</title>
<path fill="none" stroke="black" d="M749.88,-502.7C819,-524.79 956.32,-568.69 1035.73,-594.08"/>
<polygon fill="black" stroke="black" points="1034.48,-597.67 1045.07,-597.38 1036.61,-591 1034.48,-597.67"/>
<text text-anchor="middle" x="886.31" y="-552.19" font-family="Times,serif" font-size="14.00">#</text>
</g>
</g>
</svg>
